<?xml version="1.0" standalone="no"?><!DOCTYPE svg PUBLIC "-//W3C//DTD SVG 1.1//EN" "http://www.w3.org/Graphics/SVG/1.1/DTD/svg11.dtd"><svg t="1615911649081" class="icon" viewBox="0 0 1024 1024" version="1.1" xmlns="http://www.w3.org/2000/svg" p-id="7153" xmlns:xlink="http://www.w3.org/1999/xlink" width="200" height="200"><defs><style type="text/css"></style></defs><path d="M0 512c0 282.624 229.376 512 512 512s512-229.376 512-512S794.624 0 512 0 0 229.376 0 512z" fill="#CCD7E9" p-id="7154"></path><path d="M177.152 899.584a306.005333 306.005333 0 0 1 215.04-89.088h230.912c82.432 0 161.28 33.28 219.136 92.672a512.426667 512.426667 0 0 1-665.088-3.584z" fill="#2F8AF8" p-id="7155"></path><path d="M627.2 810.496a119.082667 119.082667 0 0 1-119.296 119.296 119.082667 119.082667 0 0 1-119.296-119.296H627.2z" fill="#00BFD2" p-id="7156"></path><path d="M456.704 640h102.4c18.944 0 34.304 15.36 34.304 34.304v136.704c0 47.104-38.4 85.504-85.504 85.504s-85.504-38.4-85.504-85.504v-136.704c0-9.216 3.584-17.92 10.24-24.064a32.469333 32.469333 0 0 1 24.064-10.24z" fill="#E2ECFF" p-id="7157"></path><path d="M697.856 544.768l-1.536 16.384a188.330667 188.330667 0 0 1-187.392 172.544 187.946667 187.946667 0 0 1-187.392-172.544l-1.536-15.36a42.538667 42.538667 0 0 1-46.08-38.912 42.538667 42.538667 0 0 1 38.912-46.08l-2.048-23.552a198.229333 198.229333 0 0 1 181.248-214.528c5.632-0.512 11.264-0.512 16.896-0.512h197.632a18.346667 18.346667 0 0 1 12.8 5.632 17.28 17.28 0 0 1 4.608 12.8l-18.944 220.16c16.896-1.024 32.768 7.68 40.96 22.528a41.941333 41.941333 0 0 1-4.096 46.592c-10.24 12.8-27.648 18.944-44.032 14.848z" fill="#FFFFFF" p-id="7158"></path><path d="M443.904 580.096h136.704c0 37.888-30.72 68.096-68.096 68.096a68.522667 68.522667 0 0 1-68.608-68.096z" fill="#2F82F8" p-id="7159"></path></svg>